<?xml version="1.0" encoding="UTF-8" ?>
<!DOCTYPE svg PUBLIC "-//W3C//DTD SVG 1.1//EN" "http://www.w3.org/Graphics/SVG/1.1/DTD/svg11.dtd">
<svg width="488pt" height="538pt" viewBox="0 0 488 538" version="1.1" xmlns="http://www.w3.org/2000/svg">
<g id="#ffffffff">
</g>
<g id="#00acf6ff">
<path fill="#00acf6" opacity="1.00" d=" M 214.45 38.69 C 222.73 34.74 231.82 32.47 240.98 32.02 C 255.26 32.82 269.68 37.83 280.12 47.86 C 292.11 58.71 299.21 74.81 298.79 91.00 C 299.00 105.20 293.30 119.23 283.81 129.71 C 273.50 141.30 258.40 147.94 243.01 148.88 C 228.56 149.15 214.13 144.10 202.80 135.14 C 182.84 120.47 162.99 105.65 142.91 91.15 C 160.46 77.60 178.43 64.58 196.13 51.21 C 202.18 46.96 207.59 41.67 214.45 38.69 Z" />
</g>
<g id="#00da00ff">
<path fill="#00da00" opacity="1.00" d=" M 327.73 83.18 C 350.02 98.59 372.42 113.85 394.81 129.11 C 401.77 134.87 407.74 141.96 411.74 150.10 C 412.56 152.03 413.38 153.96 414.24 155.87 C 417.41 164.87 418.30 174.52 417.18 183.97 C 416.64 185.63 416.40 187.36 416.19 189.08 C 415.19 192.41 414.18 195.76 412.71 198.92 C 412.25 199.98 411.79 201.04 411.35 202.11 C 409.78 204.89 408.09 207.60 406.31 210.24 C 395.31 224.80 377.45 234.26 359.05 233.68 C 336.58 234.01 315.09 219.46 306.24 198.94 C 304.85 195.73 303.87 192.38 302.85 189.05 C 302.55 187.06 302.27 185.06 301.76 183.11 C 300.87 175.69 301.73 168.28 302.78 160.93 C 303.53 158.94 304.22 156.93 304.83 154.89 C 306.20 150.59 307.56 146.28 308.97 141.98 C 309.27 140.81 309.56 139.64 309.84 138.46 L 310.22 138.46 C 310.49 137.31 310.78 136.17 311.09 135.04 C 312.82 129.71 314.53 124.38 316.24 119.04 C 316.55 118.04 316.90 117.05 317.28 116.08 C 317.40 115.53 317.64 114.44 317.76 113.90 C 319.11 110.36 320.04 106.68 321.36 103.14 C 321.47 102.59 321.69 101.49 321.80 100.94 C 322.32 99.68 322.82 98.41 323.35 97.15 C 323.45 96.59 323.65 95.48 323.75 94.93 C 324.14 93.93 324.52 92.92 324.89 91.91 C 325.19 90.90 325.49 89.88 325.77 88.86 C 326.43 86.97 327.05 85.06 327.73 83.18 Z" />
</g>
<g id="#e15cf6ff">
<path fill="#e15cf6" opacity="1.00" d=" M 99.02 123.99 C 114.15 116.48 132.61 116.10 148.04 122.97 C 162.36 129.13 173.83 141.37 179.19 156.00 C 182.80 165.13 183.27 175.14 182.23 184.82 C 179.77 201.92 169.10 217.25 154.71 226.56 C 134.32 240.69 114.04 254.98 93.62 269.05 C 84.96 243.74 77.01 218.17 68.48 192.81 C 65.57 182.45 65.66 171.24 68.41 160.86 C 72.70 144.93 84.19 131.17 99.02 123.99 Z" />
</g>
<g id="#ff4a59ff">
<path fill="#ff4a59" opacity="1.00" d=" M 148.49 259.17 C 162.90 253.53 179.60 253.96 193.67 260.42 C 210.28 267.87 222.81 283.53 226.90 301.21 C 233.78 324.96 241.06 348.61 247.84 372.40 C 230.54 372.27 213.24 372.32 195.95 372.05 C 181.96 371.05 167.60 373.51 153.94 369.45 C 138.09 365.08 124.30 353.70 117.20 338.85 C 110.18 324.72 109.44 307.68 115.05 292.95 C 120.73 277.64 133.24 265.01 148.49 259.17 Z" />
</g>
<g id="#ffaf00ff">
<path fill="#ffaf00" opacity="1.00" d=" M 279.01 267.91 C 288.15 260.81 299.46 256.65 310.94 255.56 C 338.26 255.49 365.59 255.56 392.91 255.43 C 392.66 256.72 392.44 258.01 392.11 259.28 C 388.04 272.52 384.04 285.78 380.14 299.07 C 376.96 309.00 374.13 319.03 371.10 329.01 C 370.79 330.02 370.49 331.03 370.21 332.05 C 367.59 338.15 364.74 344.25 360.55 349.46 C 349.91 363.39 332.52 372.15 314.93 371.80 C 299.51 372.24 284.07 365.75 273.37 354.68 C 261.82 343.43 255.72 327.01 256.50 310.97 C 257.34 294.28 265.66 278.04 279.01 267.91 Z" />
</g>
<g id="#000000ff">
<path fill="#000000" opacity="1.00" d=" M 124.65 411.15 C 128.65 411.15 132.66 411.14 136.66 411.16 C 136.68 434.94 136.66 458.72 136.67 482.50 C 198.89 482.51 261.11 482.51 323.33 482.50 C 323.33 464.72 323.30 446.93 323.32 429.15 C 327.10 429.13 330.88 429.13 334.66 429.15 C 334.67 449.93 334.67 470.71 334.66 491.49 C 264.69 491.48 194.72 491.53 124.75 491.46 C 124.62 464.69 124.62 437.92 124.65 411.15 Z" />
<path fill="#000000" opacity="1.00" d=" M 147.96 411.15 C 219.19 411.15 290.43 411.14 361.66 411.16 C 361.68 417.15 361.66 423.14 361.67 429.14 C 369.78 429.26 377.90 429.02 386.01 429.24 C 389.47 440.10 393.11 450.90 396.68 461.73 C 399.95 450.84 403.60 440.08 406.93 429.21 C 411.28 429.11 415.63 429.14 419.98 429.17 C 413.65 447.01 406.85 464.69 400.35 482.47 C 398.66 486.93 394.99 491.11 390.01 491.64 C 385.63 492.61 381.17 491.93 376.79 491.40 C 376.80 488.80 376.80 486.20 376.76 483.60 C 377.10 483.16 377.76 482.27 378.10 481.83 C 380.28 481.83 382.47 481.84 384.66 481.88 C 387.88 480.56 390.33 477.25 389.05 473.68 C 384.23 460.50 379.20 447.39 374.36 434.22 C 373.83 432.76 373.81 429.64 371.49 430.43 C 371.60 432.78 371.63 435.15 371.64 437.51 C 368.56 437.52 365.47 437.52 362.40 437.52 C 362.53 446.13 362.08 454.79 362.62 463.38 C 363.86 467.06 368.63 465.78 371.63 465.79 C 371.61 468.89 371.61 471.99 371.62 475.09 C 366.06 476.05 360.10 476.33 354.81 474.09 C 351.64 472.76 349.73 469.39 349.73 466.02 C 349.58 456.52 349.72 447.02 349.66 437.52 C 347.06 437.51 344.46 437.51 341.86 437.52 C 341.86 434.72 341.85 431.93 341.86 429.14 C 344.45 429.14 347.05 429.15 349.64 429.16 C 349.67 426.44 349.67 423.72 349.68 421.00 C 286.67 421.00 223.67 421.00 160.67 421.00 C 160.66 439.28 160.68 457.57 160.66 475.85 C 156.42 475.87 152.19 475.86 147.96 475.86 C 147.96 454.29 147.95 432.72 147.96 411.15 Z" />
<path fill="#000000" opacity="1.00" d=" M 77.59 432.48 C 84.21 427.38 93.03 427.99 100.89 428.50 C 106.96 429.07 114.10 433.10 114.03 439.97 C 114.32 449.31 113.95 458.66 114.20 468.01 C 114.27 470.70 114.99 473.31 115.68 475.90 C 111.47 475.84 107.27 475.86 103.06 475.87 C 102.61 474.38 102.16 472.90 101.72 471.42 C 97.16 476.21 90.19 477.14 83.91 476.67 C 78.79 476.65 73.62 473.63 71.58 468.86 C 69.47 463.32 70.33 455.99 75.55 452.47 C 82.45 447.87 91.31 449.56 98.82 446.72 C 102.68 445.54 102.13 439.60 99.22 437.68 C 95.55 436.10 91.27 436.12 87.63 437.74 C 85.52 438.87 85.23 441.43 84.71 443.51 C 80.37 443.51 76.04 443.53 71.71 443.50 C 72.49 439.34 73.99 435.03 77.59 432.48 M 90.16 455.72 C 87.03 456.25 83.10 458.26 83.28 461.95 C 82.89 464.44 84.25 467.34 86.91 467.81 C 91.21 469.09 96.95 468.75 99.71 464.71 C 102.12 461.40 101.26 457.02 101.56 453.19 C 97.98 454.89 94.04 455.29 90.16 455.72 Z" />
<path fill="#000000" opacity="1.00" d=" M 166.36 429.19 C 170.75 429.12 175.15 429.15 179.55 429.16 C 183.12 439.88 186.27 450.73 189.64 461.52 C 192.96 450.72 196.19 439.88 199.70 429.15 C 203.85 429.16 208.00 429.09 212.15 429.23 C 206.98 444.80 201.59 460.30 196.41 475.87 C 191.63 475.78 186.84 476.07 182.08 475.64 C 177.18 460.05 171.53 444.69 166.36 429.19 Z" />
<path fill="#000000" opacity="1.00" d=" M 225.16 431.15 C 231.40 427.45 238.95 428.13 245.89 428.45 C 251.96 428.87 259.11 432.65 259.62 439.39 C 259.86 448.93 259.60 458.48 259.73 468.02 C 259.74 470.69 260.43 473.29 260.96 475.89 C 256.77 475.83 252.59 475.86 248.40 475.87 C 248.09 474.36 247.79 472.87 247.53 471.38 C 241.34 477.11 231.96 477.95 224.18 475.63 C 215.43 472.57 213.23 459.92 219.66 453.59 C 224.69 449.05 231.86 449.26 238.15 448.19 C 240.99 447.62 244.41 447.51 246.45 445.16 C 247.90 442.72 246.91 439.12 244.55 437.60 C 241.03 436.12 236.89 436.09 233.39 437.65 C 231.22 438.79 230.47 441.23 230.06 443.48 C 225.85 443.53 221.63 443.53 217.42 443.50 C 217.67 438.37 220.56 433.51 225.16 431.15 M 229.76 458.89 C 228.40 461.42 228.39 465.31 230.88 467.17 C 234.59 469.00 239.17 468.84 242.88 467.07 C 247.46 464.01 247.22 457.91 247.19 453.06 C 241.82 456.43 234.18 453.83 229.76 458.89 Z" />
<path fill="#000000" opacity="1.00" d=" M 281.16 436.06 C 286.69 427.73 299.29 426.08 307.23 431.80 C 311.63 435.12 312.22 441.04 312.53 446.13 C 312.70 456.04 312.56 465.95 312.60 475.86 C 308.33 475.86 304.06 475.86 299.79 475.86 C 299.57 465.55 300.24 455.19 299.44 444.91 C 299.17 437.02 287.51 435.96 283.78 441.79 C 281.94 444.86 281.60 448.53 281.61 452.05 C 281.61 459.98 281.62 467.92 281.61 475.86 C 277.47 475.86 273.33 475.87 269.19 475.85 C 269.16 460.42 269.19 444.99 269.17 429.55 C 273.18 429.55 277.18 429.53 281.18 429.59 C 281.18 431.74 281.18 433.90 281.16 436.06 Z" />
</g>
</svg>
